<svg xmlns="http://www.w3.org/2000/svg" viewBox="0 0 1440 320"><path fill="rgb(19, 235, 62)" fill-opacity="1" d="M0,128L34.3,138.7C68.6,149,137,171,206,170.7C274.3,171,343,149,411,160C480,171,549,213,617,208C685.7,203,754,149,823,144C891.4,139,960,181,1029,202.7C1097.1,224,1166,224,1234,213.3C1302.9,203,1371,181,1406,170.7L1440,160L1440,0L1405.7,0C1371.4,0,1303,0,1234,0C1165.7,0,1097,0,1029,0C960,0,891,0,823,0C754.3,0,686,0,617,0C548.6,0,480,0,411,0C342.9,0,274,0,206,0C137.1,0,69,0,34,0L0,0Z"></path></svg>
